<?xml version="1.0" encoding="UTF-8"?>
<svg version="1.1" xmlns="http://www.w3.org/2000/svg" width="100" height="100">
<path d="M0 0 C1.87171875 -0.00386719 1.87171875 -0.00386719 3.78125 -0.0078125 C5.74578125 0.00378906 5.74578125 0.00378906 7.75 0.015625 C9.0596875 0.00789063 10.369375 0.00015625 11.71875 -0.0078125 C12.9665625 -0.00523438 14.214375 -0.00265625 15.5 0 C16.64984375 0.00225586 17.7996875 0.00451172 18.984375 0.00683594 C21.75 0.265625 21.75 0.265625 23.75 2.265625 C24.00396729 4.69458008 24.00396729 4.69458008 24.00878906 7.78515625 C24.01509338 8.93975342 24.02139771 10.09435059 24.02789307 11.28393555 C24.0238446 12.53601807 24.01979614 13.78810059 24.015625 15.078125 C24.01753845 16.35792236 24.0194519 17.63771973 24.02142334 18.95629883 C24.02437382 21.66655293 24.02007955 24.37667527 24.01074219 27.08691406 C23.99934753 30.56411731 24.00590743 34.04101182 24.01788712 37.51820374 C24.02684425 40.82986904 24.02057635 44.14145091 24.015625 47.453125 C24.01967346 48.70520752 24.02372192 49.95729004 24.02789307 51.24731445 C24.01843658 52.97921021 24.01843658 52.97921021 24.00878906 54.74609375 C24.00719788 55.76598389 24.00560669 56.78587402 24.00396729 57.83666992 C23.75 60.265625 23.75 60.265625 21.75 62.265625 C18.984375 62.52441406 18.984375 62.52441406 15.5 62.53125 C13.62828125 62.53511719 13.62828125 62.53511719 11.71875 62.5390625 C9.75421875 62.52746094 9.75421875 62.52746094 7.75 62.515625 C6.4403125 62.52335937 5.130625 62.53109375 3.78125 62.5390625 C2.5334375 62.53648438 1.285625 62.53390625 0 62.53125 C-1.14984375 62.52899414 -2.2996875 62.52673828 -3.484375 62.52441406 C-6.25 62.265625 -6.25 62.265625 -8.25 60.265625 C-8.375 56.640625 -8.375 56.640625 -8.25 53.265625 C-12.705 53.760625 -12.705 53.760625 -17.25 54.265625 C-17.25 54.925625 -17.25 55.585625 -17.25 56.265625 C-15.6 56.595625 -13.95 56.925625 -12.25 57.265625 C-12.25 58.915625 -12.25 60.565625 -12.25 62.265625 C-22.81 62.265625 -33.37 62.265625 -44.25 62.265625 C-44.25 60.615625 -44.25 58.965625 -44.25 57.265625 C-41.775 56.770625 -41.775 56.770625 -39.25 56.265625 C-39.25 55.605625 -39.25 54.945625 -39.25 54.265625 C-39.81509277 54.24580566 -40.38018555 54.22598633 -40.96240234 54.20556641 C-43.51707997 54.11044264 -46.07092541 54.00071442 -48.625 53.890625 C-49.51445313 53.8596875 -50.40390625 53.82875 -51.3203125 53.796875 C-52.17109375 53.75820312 -53.021875 53.71953125 -53.8984375 53.6796875 C-54.68395996 53.6482666 -55.46948242 53.6168457 -56.27880859 53.58447266 C-58.25 53.265625 -58.25 53.265625 -60.25 51.265625 C-60.50396729 49.4440918 -60.50396729 49.4440918 -60.50878906 47.21484375 C-60.51509338 46.38057861 -60.52139771 45.54631348 -60.52789307 44.68676758 C-60.5238446 43.78466553 -60.51979614 42.88256348 -60.515625 41.953125 C-60.51753845 41.02846436 -60.5194519 40.10380371 -60.52142334 39.15112305 C-60.52278566 37.19417041 -60.51908596 35.23720876 -60.51074219 33.28027344 C-60.50004334 30.2777891 -60.51063591 27.27590313 -60.5234375 24.2734375 C-60.52211591 22.37499867 -60.51955354 20.47656022 -60.515625 18.578125 C-60.51967346 17.67602295 -60.52372192 16.7739209 -60.52789307 15.84448242 C-60.52158875 15.01021729 -60.51528442 14.17595215 -60.50878906 13.31640625 C-60.50719788 12.58075439 -60.50560669 11.84510254 -60.50396729 11.0871582 C-60.25 9.265625 -60.25 9.265625 -58.25 7.265625 C-56.11129761 7.02511597 -56.11129761 7.02511597 -53.43310547 7.03857422 C-52.43221893 7.03872528 -51.4313324 7.03887634 -50.40011597 7.03903198 C-48.77506638 7.05451584 -48.77506638 7.05451584 -47.1171875 7.0703125 C-45.45672897 7.07455734 -45.45672897 7.07455734 -43.76272583 7.07888794 C-40.21670863 7.09010981 -36.67094125 7.11521809 -33.125 7.140625 C-30.72526406 7.1506522 -28.32552417 7.1597785 -25.92578125 7.16796875 C-20.03376849 7.19005568 -14.14190209 7.22355293 -8.25 7.265625 C-8.29125 6.481875 -8.3325 5.698125 -8.375 4.890625 C-8.11372963 -0.59605283 -4.56133074 0.0089488 0 0 Z M-6.25 5.265625 C-6.70440062 7.64188292 -6.70440062 7.64188292 -6.63818359 10.33203125 C-6.64764008 11.36320068 -6.65709656 12.39437012 -6.6668396 13.45678711 C-6.66076691 14.56932861 -6.65469421 15.68187012 -6.6484375 16.828125 C-6.65130768 17.97095947 -6.65417786 19.11379395 -6.65713501 20.29125977 C-6.65917757 22.70882665 -6.65363438 25.12640999 -6.64111328 27.54394531 C-6.62506321 31.25102585 -6.64095641 34.957016 -6.66015625 38.6640625 C-6.65817385 41.01041908 -6.65433025 43.35677498 -6.6484375 45.703125 C-6.65451019 46.8156665 -6.66058289 47.92820801 -6.6668396 49.07446289 C-6.65738312 50.10563232 -6.64792664 51.13680176 -6.63818359 52.19921875 C-6.63579681 53.10728271 -6.63341003 54.01534668 -6.63095093 54.95092773 C-6.17562565 57.71753125 -5.47482886 58.60742707 -3.25 60.265625 C-0.88656676 60.7264693 -0.88656676 60.7264693 1.75 60.6640625 C2.719375 60.66792969 3.68875 60.67179687 4.6875 60.67578125 C5.698125 60.66417969 6.70875 60.65257812 7.75 60.640625 C8.760625 60.65222656 9.77125 60.66382813 10.8125 60.67578125 C11.781875 60.67191406 12.75125 60.66804688 13.75 60.6640625 C15.0803125 60.65898682 15.0803125 60.65898682 16.4375 60.65380859 C19.28877904 60.17518384 20.00168966 59.53683137 21.75 57.265625 C22.20440062 54.88936708 22.20440062 54.88936708 22.13818359 52.19921875 C22.14764008 51.16804932 22.15709656 50.13687988 22.1668396 49.07446289 C22.16076691 47.96192139 22.15469421 46.84937988 22.1484375 45.703125 C22.15130768 44.56029053 22.15417786 43.41745605 22.15713501 42.23999023 C22.15917757 39.82242335 22.15363438 37.40484001 22.14111328 34.98730469 C22.12506321 31.28022415 22.14095641 27.574234 22.16015625 23.8671875 C22.15817385 21.52083092 22.15433025 19.17447502 22.1484375 16.828125 C22.15451019 15.7155835 22.16058289 14.60304199 22.1668396 13.45678711 C22.15738312 12.42561768 22.14792664 11.39444824 22.13818359 10.33203125 C22.13579681 9.42396729 22.13341003 8.51590332 22.13095093 7.58032227 C21.67562565 4.81371875 20.97482886 3.92382293 18.75 2.265625 C16.38656676 1.8047807 16.38656676 1.8047807 13.75 1.8671875 C12.780625 1.86332031 11.81125 1.85945313 10.8125 1.85546875 C9.801875 1.86707031 8.79125 1.87867187 7.75 1.890625 C6.739375 1.87902344 5.72875 1.86742188 4.6875 1.85546875 C3.718125 1.85933594 2.74875 1.86320312 1.75 1.8671875 C0.863125 1.87057129 -0.02375 1.87395508 -0.9375 1.87744141 C-3.78877904 2.35606616 -4.50168966 2.99441863 -6.25 5.265625 Z M-56.87890625 10.89648438 C-58.65919349 13.97267872 -58.70754681 16.0156442 -58.640625 19.5625 C-58.63063477 20.64885742 -58.62064453 21.73521484 -58.61035156 22.85449219 C-58.57393555 24.22766602 -58.53751953 25.60083984 -58.5 27.015625 C-58.4175 31.388125 -58.335 35.760625 -58.25 40.265625 C-41.75 40.265625 -25.25 40.265625 -8.25 40.265625 C-8.25 30.035625 -8.25 19.805625 -8.25 9.265625 C-14.72857262 9.17380271 -21.20488888 9.09416054 -27.68359375 9.04589844 C-29.8874476 9.02578081 -32.09124807 8.99848328 -34.29492188 8.96386719 C-37.46237356 8.91535667 -40.62911968 8.89265764 -43.796875 8.875 C-44.78242371 8.85435486 -45.76797241 8.83370972 -46.78338623 8.81243896 C-52.11019562 8.77932284 -52.11019562 8.77932284 -56.87890625 10.89648438 Z M-58.25 41.265625 C-58.74710917 46.84944067 -58.74710917 46.84944067 -56.90332031 49.61621094 C-52.71271466 52.22126539 -48.62971225 51.75748762 -43.796875 51.65625 C-42.78151672 51.65059021 -41.76615845 51.64493042 -40.72003174 51.63909912 C-37.47953999 51.61672253 -34.2401571 51.56652255 -31 51.515625 C-28.80209931 51.49556171 -26.60418128 51.47731065 -24.40625 51.4609375 C-19.02040659 51.41685331 -13.63539125 51.34781576 -8.25 51.265625 C-8.25 47.965625 -8.25 44.665625 -8.25 41.265625 C-24.75 41.265625 -41.25 41.265625 -58.25 41.265625 Z M-37.25 53.265625 C-37.25 54.585625 -37.25 55.905625 -37.25 57.265625 C-38.9 57.925625 -40.55 58.585625 -42.25 59.265625 C-41.92 59.925625 -41.59 60.585625 -41.25 61.265625 C-32.67 61.265625 -24.09 61.265625 -15.25 61.265625 C-15.25 60.275625 -15.25 59.285625 -15.25 58.265625 C-16.24 57.935625 -17.23 57.605625 -18.25 57.265625 C-18.58 55.945625 -18.91 54.625625 -19.25 53.265625 C-25.19 53.265625 -31.13 53.265625 -37.25 53.265625 Z " fill="#FFFFFF" transform="translate(68.25,18.734375)"/>
<path d="M0 0 C0.99 0.33 1.98 0.66 3 1 C2.34 1 1.68 1 1 1 C1 2.65 1 4.3 1 6 C7.6 6 14.2 6 21 6 C21 4.35 21 2.7 21 1 C18.03 1 15.06 1 12 1 C12 0.67 12 0.34 12 0 C15.3 0 18.6 0 22 0 C22 6.27 22 12.54 22 19 C21.01 18.67 20.02 18.34 19 18 C19.66 18 20.32 18 21 18 C21 16.35 21 14.7 21 13 C14.4 13 7.8 13 1 13 C1 14.65 1 16.3 1 18 C6.61 18 12.22 18 18 18 C18 18.33 18 18.66 18 19 C12.06 19 6.12 19 0 19 C0 12.73 0 6.46 0 0 Z M1 7 C1 8.65 1 10.3 1 12 C7.6 12 14.2 12 21 12 C21 10.35 21 8.7 21 7 C14.4 7 7.8 7 1 7 Z " fill="#FFFFFF" transform="translate(65,26)"/>
<path d="M0 0 C3 0.125 3 0.125 4 1.125 C4.125 4.125 4.125 4.125 4 7.125 C3 8.125 3 8.125 0 8.25 C-3 8.125 -3 8.125 -4 7.125 C-4.125 4.125 -4.125 4.125 -4 1.125 C-3 0.125 -3 0.125 0 0 Z M-2 2.125 C-2 3.445 -2 4.765 -2 6.125 C-0.68 6.125 0.64 6.125 2 6.125 C2 4.805 2 3.485 2 2.125 C0.68 2.125 -0.64 2.125 -2 2.125 Z " fill="#FFFFFF" transform="translate(76,61.875)"/>
<path d="M0 0 C1.98 0 3.96 0 6 0 C6 1.98 6 3.96 6 6 C4.02 6 2.04 6 0 6 C0 4.02 0 2.04 0 0 Z M2 2 C2 2.66 2 3.32 2 4 C2.66 4 3.32 4 4 4 C4 3.34 4 2.68 4 2 C3.34 2 2.68 2 2 2 Z " fill="#FFFFFF" transform="translate(37,62)"/>
<path d="M0 0 C1.32 0 2.64 0 4 0 C4 1.32 4 2.64 4 4 C2.68 4 1.36 4 0 4 C0 2.68 0 1.36 0 0 Z " fill="#FFFFFF" transform="translate(74,73)"/>
<path d="M0 0 C4 1 4 1 4 1 Z " fill="#FFFFFF" transform="translate(38,30)"/>
<path d="M0 0 C3 1 3 1 3 1 Z " fill="#FFFFFF" transform="translate(41,76)"/>
<path d="M0 0 C3 1 3 1 3 1 Z " fill="#FFFFFF" transform="translate(73,26)"/>
<path d="M0 0 C2 1 2 1 2 1 Z " fill="#FFFFFF" transform="translate(70,26)"/>
</svg>
