<?xml version="1.0" encoding="UTF-8"?>
<svg version="1.1" xmlns="http://www.w3.org/2000/svg" width="50" height="50">
<path d="M0 0 C1.66611905 -0.042721 3.33382885 -0.04063832 5 0 C6 1 6 1 6 6 C20.52 6 35.04 6 50 6 C50 15.9 50 25.8 50 36 C46.04 36 42.08 36 38 36 C38 36.66 38 37.32 38 38 C38.66 38 39.32 38 40 38 C40 38.66 40 39.32 40 40 C38.68 40 37.36 40 36 40 C36 38.68 36 37.36 36 36 C35.34 36 34.68 36 34 36 C34 37.32 34 38.64 34 40 C28.39 40 22.78 40 17 40 C17 38.68 17 37.36 17 36 C16.34 36 15.68 36 15 36 C15 37.32 15 38.64 15 40 C13.02 40 11.04 40 9 40 C9 38.68 9 37.36 9 36 C8.01 36 7.02 36 6 36 C6 37.98 6 39.96 6 42 C5.34 42 4.68 42 4 42 C3.98541748 40.85934082 3.97083496 39.71868164 3.95581055 38.54345703 C3.89793273 34.32015283 3.82070023 30.09738775 3.73754883 25.87451172 C3.70424974 24.0451735 3.67623343 22.2157313 3.65356445 20.38623047 C3.62010923 17.75963944 3.56780037 15.13400559 3.51171875 12.5078125 C3.50213387 11.27649094 3.50213387 11.27649094 3.49235535 10.02029419 C3.46057783 7.47385626 3.46057783 7.47385626 3 4 C2.01 3.34 1.02 2.68 0 2 C0 1.34 0 0.68 0 0 Z M6 8 C6 16.58 6 25.16 6 34 C11.82076811 34.02290639 17.641381 34.04283426 23.4621582 34.05493164 C25.44393441 34.05997267 27.42570689 34.06680538 29.4074707 34.07543945 C32.24952109 34.08751515 35.09152247 34.09323045 37.93359375 34.09765625 C39.27108925 34.10539818 39.27108925 34.10539818 40.63560486 34.11329651 C42.75740601 34.11349177 44.8791078 34.0621003 47 34 C48.71567792 32.28432208 48.13015825 30.02627265 48.1328125 27.6875 C48.13410156 26.61242187 48.13539062 25.53734375 48.13671875 24.4296875 C48.13091797 22.73199219 48.13091797 22.73199219 48.125 21 C48.13080078 19.30230469 48.13080078 19.30230469 48.13671875 17.5703125 C48.13478516 15.95769531 48.13478516 15.95769531 48.1328125 14.3125 C48.13112061 12.82169922 48.13112061 12.82169922 48.12939453 11.30078125 C48.2583433 9.03624774 48.2583433 9.03624774 47 8 C43.97022196 7.91128727 40.96332978 7.8848065 37.93359375 7.90234375 C37.02497086 7.9037587 36.11634796 7.90517365 35.18019104 7.90663147 C32.26592779 7.91224807 29.35174019 7.92480335 26.4375 7.9375 C24.46679798 7.94251286 22.49609476 7.94707614 20.52539062 7.95117188 C15.68354086 7.96137383 10.84185553 7.98094591 6 8 Z M11 36 C11 36.66 11 37.32 11 38 C11.66 38 12.32 38 13 38 C13 37.34 13 36.68 13 36 C12.34 36 11.68 36 11 36 Z M19 36 C19 36.66 19 37.32 19 38 C23.29 38 27.58 38 32 38 C32 37.34 32 36.68 32 36 C27.71 36 23.42 36 19 36 Z " fill="#FFFFFF" transform="translate(0,4)"/>
<path d="M0 0 C3.125 1.875 3.125 1.875 5 5 C5.98876625 10.02622846 5.7769173 13.70513784 3.125 18.125 C-1.29486216 20.7769173 -4.97377154 20.98876625 -10 20 C-13.125 18.125 -13.125 18.125 -15 15 C-15.98876625 9.97377154 -15.7769173 6.29486216 -13.125 1.875 C-8.70513784 -0.7769173 -5.02622846 -0.98876625 0 0 Z M-5 3 C-4.67 3.99 -4.34 4.98 -4 6 C-3.34 5.67 -2.68 5.34 -2 5 C-2 4.34 -2 3.68 -2 3 C-2.99 3 -3.98 3 -5 3 Z M-10 4 C-10 5.32 -10 6.64 -10 8 C-9.34 8 -8.68 8 -8 8 C-8 6.68 -8 5.36 -8 4 C-8.66 4 -9.32 4 -10 4 Z M0 6 C-0.99 7.485 -0.99 7.485 -2 9 C-0.68 9.33 0.64 9.66 2 10 C1.67 8.68 1.34 7.36 1 6 C0.67 6 0.34 6 0 6 Z M-12 10 C-11.67 11.32 -11.34 12.64 -11 14 C-10.01 13.01 -9.02 12.02 -8 11 C-9.32 10.67 -10.64 10.34 -12 10 Z M-2 12 C-2 13.32 -2 14.64 -2 16 C-1.01 15.67 -0.02 15.34 1 15 C0.67 14.01 0.34 13.02 0 12 C-0.66 12 -1.32 12 -2 12 Z M-6 14 C-6.99 14.495 -6.99 14.495 -8 15 C-8 15.66 -8 16.32 -8 17 C-7.01 17 -6.02 17 -5 17 C-5.33 16.01 -5.66 15.02 -6 14 Z " fill="#FFFFFF" transform="translate(41,15)"/>
<path d="M0 0 C4.62 0 9.24 0 14 0 C14 0.66 14 1.32 14 2 C9.38 2 4.76 2 0 2 C0 1.34 0 0.68 0 0 Z " fill="#FFFFFF" transform="translate(9,32)"/>
<path d="M0 0 C4.62 0 9.24 0 14 0 C14 0.66 14 1.32 14 2 C9.38 2 4.76 2 0 2 C0 1.34 0 0.68 0 0 Z " fill="#FFFFFF" transform="translate(9,27)"/>
<path d="M0 0 C4.62 0 9.24 0 14 0 C14 0.66 14 1.32 14 2 C9.38 2 4.76 2 0 2 C0 1.34 0 0.68 0 0 Z " fill="#FFFFFF" transform="translate(9,21)"/>
<path d="M0 0 C4.62 0 9.24 0 14 0 C14 0.66 14 1.32 14 2 C9.38 2 4.76 2 0 2 C0 1.34 0 0.68 0 0 Z " fill="#FFFFFF" transform="translate(9,16)"/>
</svg>
